<svg width="28" height="28" viewBox="0 0 28 28" fill="none" xmlns="http://www.w3.org/2000/svg">
<rect width="28" height="28" rx="14" fill="url(#paint0_linear_1_1652)"/>
<circle cx="14" cy="14.1148" r="12.25" fill="white" fill-opacity="0.16"/>
<g clip-path="url(#clip0_1_1652)">
<path d="M13.8668 14.7653L10.4479 13.0461L6.47153 12.3002C6.45701 12.3437 6.44916 12.3899 6.44916 12.4376V14.7653C6.44916 14.9524 6.56885 15.1184 6.74636 15.1776L13.7294 17.5052C13.774 17.5201 13.8204 17.5276 13.8668 17.5276L14.4463 15.934L13.8668 14.7653Z" fill="white"/>
<path d="M13.8672 14.7363V17.4986C13.9137 17.4986 13.9601 17.4911 14.0047 17.4762L20.9877 15.1486C21.1652 15.0894 21.2849 14.9234 21.2849 14.7363V12.4086C21.2849 12.3609 21.277 12.3147 21.2625 12.2712L17.8968 12.8136L13.8672 14.7363Z" fill="#8EB0FF"/>
<path d="M21.2633 12.3001C21.2208 12.1728 21.1207 12.0693 20.9884 12.0252L14.0054 9.69753C13.9162 9.6678 13.8197 9.6678 13.7306 9.69753L6.74755 12.0252C6.61528 12.0693 6.51517 12.1728 6.47272 12.3001L13.868 14.7652L21.2633 12.3001Z" fill="#E0E8FF"/>
<path d="M20.9876 12.0252L14.0046 9.69754C13.96 9.68268 13.9136 9.67523 13.8672 9.67523V14.7652L21.2624 12.3001C21.22 12.1728 21.1199 12.0693 20.9876 12.0252Z" fill="white"/>
</g>
<defs>
<linearGradient id="paint0_linear_1_1652" x1="-1.73836" y1="-2.9352e-07" x2="30.2707" y2="35.766" gradientUnits="userSpaceOnUse">
<stop stop-color="#3F75FF"/>
<stop offset="1" stop-color="#000860"/>
</linearGradient>
<clipPath id="clip0_1_1652">
<rect width="14.8353" height="14.8353" fill="white" transform="translate(6.44922 6.45013)"/>
</clipPath>
</defs>
</svg>
