<svg width="22" height="11" viewBox="0 0 22 11" fill="none" xmlns="http://www.w3.org/2000/svg">
<path fill-rule="evenodd" clip-rule="evenodd" d="M4.07653 7.65307C4.2819 8.10801 4.32119 8.62058 4.18756 9.10151C4.05392 9.58244 3.75584 10.0013 3.3452 10.285C2.93457 10.5688 2.43741 10.6996 1.94029 10.6545C1.44318 10.6095 0.977609 10.3915 0.624657 10.0386C0.271705 9.68564 0.0537333 9.22007 0.00870053 8.72295C-0.0363322 8.22584 0.0944267 7.72868 0.378207 7.31804C0.661987 6.90741 1.08081 6.60932 1.56174 6.47569C2.04267 6.34206 2.55523 6.38135 3.01018 6.58672L5.52037 4.07653C5.3738 3.75171 5.31096 3.39535 5.33759 3.03999C5.36421 2.68464 5.47946 2.34162 5.67279 2.04227C5.86613 1.74293 6.13139 1.4968 6.44435 1.32637C6.7573 1.15594 7.10797 1.06665 7.46433 1.06665C7.82068 1.06665 8.17135 1.15594 8.48431 1.32637C8.79726 1.4968 9.06252 1.74293 9.25586 2.04227C9.44919 2.34162 9.56444 2.68464 9.59107 3.03999C9.61769 3.39535 9.55485 3.75171 9.40828 4.07653L11.9185 6.58672C12.1943 6.46219 12.4935 6.39778 12.7961 6.39778C13.0987 6.39778 13.3979 6.46219 13.6737 6.58672L17.2502 3.01018C17.0449 2.55523 17.0056 2.04267 17.1392 1.56174C17.2728 1.08081 17.5709 0.661988 17.9816 0.378207C18.3922 0.0944269 18.8893 -0.0363322 19.3865 0.00870052C19.8836 0.0537333 20.3491 0.271705 20.7021 0.624657C21.055 0.977609 21.273 1.44318 21.3181 1.9403C21.3631 2.43741 21.2323 2.93457 20.9485 3.3452C20.6648 3.75584 20.2459 4.05392 19.765 4.18756C19.2841 4.32119 18.7715 4.2819 18.3166 4.07653L14.74 7.65307C14.8866 7.97788 14.9494 8.33425 14.9228 8.6896C14.8962 9.04496 14.7809 9.38798 14.5876 9.68733C14.3943 9.98667 14.129 10.2328 13.8161 10.4032C13.5031 10.5737 13.1524 10.663 12.7961 10.663C12.4397 10.663 12.0891 10.5737 11.7761 10.4032C11.4631 10.2328 11.1979 9.98667 11.0045 9.68733C10.8112 9.38798 10.696 9.04496 10.6693 8.6896C10.6427 8.33425 10.7056 7.97788 10.8521 7.65307L8.34193 5.14288C8.06612 5.26741 7.76695 5.33182 7.46433 5.33182C7.1617 5.33182 6.86254 5.26741 6.58672 5.14288L4.07653 7.65307Z" fill="white"/>
</svg>
