<svg width="44" height="44" viewBox="0 0 44 44" fill="none" xmlns="http://www.w3.org/2000/svg">
<rect width="43.41" height="43.41" rx="21.705" fill="url(#paint0_linear_1_1824)"/>
<circle cx="21.7048" cy="21.8829" r="18.9919" fill="white" fill-opacity="0.16"/>
<path d="M21.5 22.8913L16.1994 20.2259L10.0347 19.0695C10.0122 19.137 10 19.2087 10 19.2826V22.8913C10 23.1814 10.1856 23.4388 10.4608 23.5305L21.2869 27.1392C21.3561 27.1623 21.428 27.1738 21.5 27.1738L22.3985 24.7032L21.5 22.8913Z" fill="white"/>
<path d="M21.5 22.8464V27.1289C21.572 27.1289 21.6439 27.1174 21.7131 27.0943L32.5392 23.4856C32.8144 23.3939 33 23.1364 33 22.8464V19.2377C33 19.1638 32.9878 19.0921 32.9653 19.0246L27.7472 19.8655L21.5 22.8464Z" fill="#8EB0FF"/>
<path d="M32.9657 19.0695C32.8999 18.8722 32.7447 18.7116 32.5396 18.6433L21.7134 15.0346C21.5751 14.9885 21.4255 14.9885 21.2873 15.0346L10.4611 18.6433C10.256 18.7116 10.1008 18.8721 10.035 19.0695L21.5004 22.8913L32.9657 19.0695Z" fill="#E0E8FF"/>
<path d="M32.5392 18.6433L21.7131 15.0346C21.6439 15.0115 21.572 15 21.5 15V22.8913L32.9653 19.0695C32.8995 18.8722 32.7443 18.7117 32.5392 18.6433Z" fill="white"/>
<defs>
<linearGradient id="paint0_linear_1_1824" x1="-2.69508" y1="-4.55061e-07" x2="46.9303" y2="55.45" gradientUnits="userSpaceOnUse">
<stop stop-color="#3F75FF"/>
<stop offset="1" stop-color="#000860"/>
</linearGradient>
</defs>
</svg>
