<svg width="44" height="44" viewBox="0 0 44 44" fill="none" xmlns="http://www.w3.org/2000/svg">
<rect width="43.41" height="43.41" rx="21.705" fill="url(#paint0_linear_1_1795)"/>
<circle cx="21.7048" cy="21.8829" r="18.9919" fill="white" fill-opacity="0.16"/>
<g clip-path="url(#clip0_1_1795)">
<path fill-rule="evenodd" clip-rule="evenodd" d="M16.2999 13.6583V15.3623L14.2671 15.5279C13.5687 15.5841 12.9093 15.8728 12.3944 16.3479C11.8795 16.823 11.5388 17.4571 11.4267 18.1487C11.3771 18.4583 11.3315 18.7683 11.2899 19.0787C11.2805 19.1538 11.2951 19.2299 11.3315 19.2963C11.3679 19.3626 11.4243 19.4158 11.4927 19.4483L11.5851 19.4915C18.0999 22.5755 25.9011 22.5755 32.4147 19.4915L32.5071 19.4483C32.5752 19.4156 32.6313 19.3623 32.6675 19.296C32.7037 19.2297 32.7181 19.1536 32.7087 19.0787C32.668 18.768 32.6228 18.458 32.5731 18.1487C32.461 17.4571 32.1202 16.823 31.6053 16.3479C31.0904 15.8728 30.431 15.5841 29.7327 15.5279L27.6999 15.3635V13.6595C27.7 13.1565 27.5196 12.6702 27.1914 12.289C26.8633 11.9078 26.4093 11.657 25.9119 11.5823L24.4479 11.3627C22.8249 11.1201 21.1748 11.1201 19.5519 11.3627L18.0879 11.5823C17.5907 11.657 17.1368 11.9076 16.8087 12.2885C16.4806 12.6695 16.3 13.1555 16.2999 13.6583ZM24.1803 13.1423C22.7347 12.9263 21.265 12.9263 19.8195 13.1423L18.3555 13.3619C18.2844 13.3725 18.2196 13.4083 18.1727 13.4626C18.1258 13.517 18.0999 13.5864 18.0999 13.6583V15.2363C20.6977 15.0879 23.302 15.0879 25.8999 15.2363V13.6583C25.8998 13.5864 25.874 13.517 25.8271 13.4626C25.7801 13.4083 25.7153 13.3725 25.6443 13.3619L24.1803 13.1423Z" fill="#E0E8FF"/>
<path d="M32.9421 21.589C32.9397 21.5502 32.928 21.5126 32.9078 21.4793C32.8877 21.4461 32.8598 21.4182 32.8265 21.3982C32.7932 21.3781 32.7555 21.3664 32.7167 21.3641C32.6779 21.3618 32.6391 21.369 32.6037 21.385C25.9185 24.3454 18.0825 24.3454 11.3973 21.385C11.3619 21.369 11.3231 21.3618 11.2843 21.3641C11.2455 21.3664 11.2078 21.3781 11.1746 21.3982C11.1413 21.4182 11.1134 21.4461 11.0932 21.4793C11.0731 21.5126 11.0613 21.5502 11.0589 21.589C10.9374 23.8864 11.0609 26.1902 11.4273 28.4614C11.5392 29.1532 11.8798 29.7875 12.3948 30.2629C12.9097 30.7382 13.5692 31.0272 14.2677 31.0834L16.5141 31.2634C20.1657 31.5586 23.8341 31.5586 27.4869 31.2634L29.7333 31.0834C30.4319 31.0272 31.0913 30.7382 31.6063 30.2629C32.1212 29.7875 32.4619 29.1532 32.5737 28.4614C32.9409 26.1874 33.0657 23.8834 32.9421 21.5902" fill="white"/>
</g>
<defs>
<linearGradient id="paint0_linear_1_1795" x1="-2.69508" y1="-4.55061e-07" x2="46.9303" y2="55.45" gradientUnits="userSpaceOnUse">
<stop stop-color="#3F75FF"/>
<stop offset="1" stop-color="#000860"/>
</linearGradient>
<clipPath id="clip0_1_1795">
<rect width="24" height="21.6" fill="white" transform="translate(10 10.705)"/>
</clipPath>
</defs>
</svg>
