<svg width="17" height="17" viewBox="0 0 17 17" fill="none" xmlns="http://www.w3.org/2000/svg">
<path d="M7.50293 12.5049H9.17025V7.50293H7.50293V12.5049ZM8.33659 5.83561C8.57279 5.83561 8.77093 5.75558 8.93099 5.59552C9.09105 5.43546 9.1708 5.2376 9.17025 5.00195C9.16969 4.76631 9.08966 4.56845 8.93015 4.40839C8.77065 4.24833 8.57279 4.16829 8.33659 4.16829C8.10039 4.16829 7.90253 4.24833 7.74302 4.40839C7.58352 4.56845 7.50349 4.76631 7.50293 5.00195C7.50238 5.2376 7.58241 5.43573 7.74302 5.59635C7.90364 5.75697 8.1015 5.83672 8.33659 5.83561ZM8.33659 16.6732C7.18336 16.6732 6.09961 16.4542 5.08532 16.0163C4.07104 15.5783 3.18875 14.9845 2.43845 14.2347C1.68816 13.485 1.09432 12.6027 0.656924 11.5879C0.219531 10.573 0.000556828 9.48926 1.05526e-06 8.33659C-0.000554717 7.18392 0.21842 6.10016 0.656924 5.08532C1.09543 4.07048 1.68927 3.18819 2.43845 2.43845C3.18763 1.68871 4.06992 1.09487 5.08532 0.656923C6.10072 0.218974 7.18447 0 8.33659 0C9.48871 0 10.5725 0.218974 11.5879 0.656923C12.6033 1.09487 13.4855 1.68871 14.2347 2.43845C14.9839 3.18819 15.578 4.07048 16.0171 5.08532C16.4562 6.10016 16.6748 7.18392 16.6732 8.33659C16.6715 9.48926 16.4525 10.573 16.0163 11.5879C15.58 12.6027 14.9861 13.485 14.2347 14.2347C13.4833 14.9845 12.601 15.5786 11.5879 16.0171C10.5747 16.4556 9.49093 16.6743 8.33659 16.6732ZM8.33659 15.0059C10.1984 15.0059 11.7754 14.3598 13.0676 13.0676C14.3598 11.7754 15.0059 10.1984 15.0059 8.33659C15.0059 6.47475 14.3598 4.89775 13.0676 3.60557C11.7754 2.3134 10.1984 1.66732 8.33659 1.66732C6.47475 1.66732 4.89775 2.3134 3.60558 3.60557C2.3134 4.89775 1.66732 6.47475 1.66732 8.33659C1.66732 10.1984 2.3134 11.7754 3.60558 13.0676C4.89775 14.3598 6.47475 15.0059 8.33659 15.0059Z" fill="white" fill-opacity="0.75"/>
</svg>
