<svg width="40" height="40" viewBox="0 0 40 40" fill="none" xmlns="http://www.w3.org/2000/svg">
<rect width="39.45" height="39.3333" rx="6" fill="#1F1F1F"/>
<path d="M16.6269 30L16.209 26.64C15.9826 26.5525 15.7695 26.4475 15.5696 26.325C15.3697 26.2025 15.1736 26.0712 14.9813 25.9312L11.8731 27.2437L9 22.2562L11.6903 20.2087C11.6729 20.0862 11.6642 19.9683 11.6642 19.8549V19.1461C11.6642 19.032 11.6729 18.9137 11.6903 18.7912L9 16.7437L11.8731 11.7562L14.9813 13.0687C15.1729 12.9287 15.3731 12.7975 15.5821 12.675C15.791 12.5525 16 12.4475 16.209 12.36L16.6269 9H22.3731L22.791 12.36C23.0174 12.4475 23.2309 12.5525 23.4315 12.675C23.6321 12.7975 23.8278 12.9287 24.0187 13.0687L27.1269 11.7562L30 16.7437L27.3097 18.7912C27.3271 18.9137 27.3358 19.032 27.3358 19.1461V19.8538C27.3358 19.9679 27.3184 20.0862 27.2836 20.2087L29.9739 22.2562L27.1007 27.2437L24.0187 25.9312C23.8271 26.0712 23.6269 26.2025 23.4179 26.325C23.209 26.4475 23 26.5525 22.791 26.64L22.3731 30H16.6269ZM19.5522 23.175C20.5622 23.175 21.4241 22.8162 22.1381 22.0987C22.852 21.3812 23.209 20.515 23.209 19.5C23.209 18.485 22.852 17.6187 22.1381 16.9012C21.4241 16.1837 20.5622 15.825 19.5522 15.825C18.5249 15.825 17.6584 16.1837 16.9528 16.9012C16.2473 17.6187 15.8948 18.485 15.8955 19.5C15.8962 20.515 16.249 21.3812 16.9539 22.0987C17.6588 22.8162 18.5249 23.175 19.5522 23.175Z" fill="white" fill-opacity="0.24"/>
</svg>
