<svg width="17" height="17" viewBox="0 0 17 17" fill="none" xmlns="http://www.w3.org/2000/svg">
<path d="M3.76582 7.34334V3.76582H1.88291V4.70727C1.88291 5.30352 2.05551 5.84109 2.40071 6.31998C2.74591 6.79887 3.20094 7.13999 3.76582 7.34334ZM13.1804 7.34334C13.7452 7.13936 14.2003 6.79792 14.5455 6.31904C14.8907 5.84015 15.0633 5.3029 15.0633 4.70727V3.76582H13.1804V7.34334ZM7.53163 15.0633V12.1448C6.76278 11.9722 6.07646 11.6467 5.47267 11.1685C4.86889 10.6902 4.42546 10.0899 4.1424 9.36747C2.96558 9.22625 1.98113 8.71253 1.18906 7.8263C0.39698 6.94008 0.000627636 5.9004 0 4.70727V3.76582C0 3.24802 0.184525 2.8049 0.553575 2.43648C0.922625 2.06806 1.36574 1.88354 1.88291 1.88291H3.76582C3.76582 1.36511 3.95034 0.921997 4.31939 0.553575C4.68844 0.185153 5.13155 0.000627636 5.64873 0H11.2975C11.8153 0 12.2587 0.184525 12.6277 0.553575C12.9968 0.922625 13.181 1.36574 13.1804 1.88291H15.0633C15.5811 1.88291 16.0245 2.06743 16.3935 2.43648C16.7626 2.80553 16.9468 3.24864 16.9462 3.76582V4.70727C16.9462 5.89978 16.5498 6.93946 15.7571 7.8263C14.9644 8.71315 13.98 9.22687 12.8038 9.36747C12.5213 10.0892 12.0782 10.6896 11.4744 11.1685C10.8707 11.6474 10.184 11.9728 9.41454 12.1448V15.0633H12.2389C12.5057 15.0633 12.7294 15.1536 12.9102 15.3344C13.0909 15.5152 13.181 15.7386 13.1804 16.0047C13.1797 16.2708 13.0894 16.4946 12.9092 16.676C12.7291 16.8574 12.5057 16.9474 12.2389 16.9462H4.70727C4.44053 16.9462 4.21709 16.8558 4.03696 16.675C3.85682 16.4943 3.76644 16.2708 3.76582 16.0047C3.76519 15.7386 3.85557 15.5152 4.03696 15.3344C4.21834 15.1536 4.44178 15.0633 4.70727 15.0633H7.53163Z" fill="white"/>
</svg>
