<svg width="50" height="50" viewBox="0 0 50 50" fill="none" xmlns="http://www.w3.org/2000/svg">
<rect width="49.9343" height="49.9343" rx="24.9672" fill="url(#paint0_linear_1_2012)"/>
<g clip-path="url(#clip0_1_2012)">
<circle cx="24.9668" cy="24.9503" r="21.5626" fill="url(#paint1_linear_1_2012)"/>
<path d="M21.2144 27.3142H19.3017C19.1696 27.3142 19.0429 27.3666 18.9495 27.4601C18.8561 27.5535 18.8036 27.6802 18.8036 27.8123V33.2913C18.8036 33.4234 18.7511 33.5501 18.6577 33.6435C18.5643 33.737 18.4376 33.7894 18.3055 33.7894H14.3207C14.1886 33.7894 14.0619 33.737 13.9685 33.6435C13.8751 33.5501 13.8226 33.4234 13.8226 33.2913V27.8123C13.8226 27.6802 13.7701 27.5535 13.6767 27.4601C13.5833 27.3666 13.4566 27.3142 13.3245 27.3142H11.4138C11.2999 27.3168 11.1879 27.285 11.0925 27.2227C10.9971 27.1605 10.9228 27.0708 10.8794 26.9655C10.8353 26.8637 10.8229 26.751 10.8438 26.6421C10.8647 26.5332 10.9179 26.4331 10.9964 26.3548L15.9072 21.5034C16.0158 21.3968 16.1619 21.3371 16.3141 21.3371C16.4663 21.3371 16.6124 21.3968 16.721 21.5034L21.2941 26.0191V27.3042C21.2677 27.3091 21.2411 27.3124 21.2144 27.3142ZM27.2713 20.8389V33.2913C27.2713 33.4234 27.2188 33.5501 27.1254 33.6435C27.032 33.737 26.9053 33.7894 26.7732 33.7894H22.7884C22.6563 33.7894 22.5296 33.737 22.4362 33.6435C22.3428 33.5501 22.2903 33.4234 22.2903 33.2913V20.8389C22.2903 20.7068 22.2378 20.5801 22.1444 20.4867C22.051 20.3933 21.9243 20.3408 21.7922 20.3408H19.881C19.7672 20.3433 19.6553 20.3113 19.56 20.2491C19.4647 20.1869 19.3905 20.0973 19.347 19.9921C19.3028 19.8901 19.2903 19.7771 19.3113 19.6679C19.3323 19.5587 19.3857 19.4583 19.4646 19.38L24.3718 14.5295C24.4814 14.4241 24.6275 14.3653 24.7795 14.3653C24.9315 14.3653 25.0776 14.4241 25.1872 14.5295L30.0925 19.378C30.1727 19.4564 30.2273 19.5573 30.249 19.6674C30.2708 19.7774 30.2588 19.8915 30.2145 19.9946C30.1711 20.0998 30.0968 20.1894 30.0015 20.2516C29.9062 20.3138 29.7943 20.3458 29.6806 20.3433H27.7694C27.6377 20.3433 27.5114 20.3954 27.418 20.4883C27.3247 20.5812 27.2719 20.7072 27.2713 20.8389ZM38.6817 26.9655C38.6384 27.0707 38.5643 27.1604 38.4691 27.2226C38.3738 27.2849 38.262 27.3168 38.1482 27.3142H36.237C36.1049 27.3142 35.9782 27.3666 35.8848 27.4601C35.7914 27.5535 35.7389 27.6802 35.7389 27.8123V33.2913C35.7389 33.4234 35.6864 33.5501 35.593 33.6435C35.4996 33.737 35.3729 33.7894 35.2408 33.7894H31.256C31.1239 33.7894 30.9972 33.737 30.9038 33.6435C30.8104 33.5501 30.7579 33.4234 30.7579 33.2913V27.8123C30.7579 27.6802 30.7055 27.5535 30.6121 27.4601C30.5186 27.3666 30.3919 27.3142 30.2598 27.3142H28.3471C28.3204 27.3124 28.2938 27.3091 28.2675 27.3042V26.0191L32.841 21.5024C32.9495 21.396 33.0955 21.3364 33.2474 21.3364C33.3994 21.3364 33.5453 21.396 33.6539 21.5024L38.5601 26.3494C38.6404 26.4277 38.695 26.5285 38.7167 26.6385C38.7384 26.7486 38.7262 26.8626 38.6817 26.9655Z" fill="white"/>
</g>
<defs>
<linearGradient id="paint0_linear_1_2012" x1="-61.5704" y1="-6.9051" x2="79.984" y2="49.4865" gradientUnits="userSpaceOnUse">
<stop stop-color="#3F72FF"/>
<stop offset="0.49489" stop-color="#0036B2"/>
<stop offset="1" stop-color="#47B4B4"/>
</linearGradient>
<linearGradient id="paint1_linear_1_2012" x1="73.7663" y1="50.4849" x2="-10.0723" y2="6.08302" gradientUnits="userSpaceOnUse">
<stop stop-color="#3F72FF"/>
<stop offset="0.49489" stop-color="#0036B2"/>
<stop offset="1" stop-color="#47B4B4"/>
</linearGradient>
<clipPath id="clip0_1_2012">
<rect x="3.4043" y="3.38721" width="43.1251" height="43.1251" rx="21.5626" fill="white"/>
</clipPath>
</defs>
</svg>
