<svg width="44" height="44" viewBox="0 0 44 44" fill="none" xmlns="http://www.w3.org/2000/svg">
<rect width="43.41" height="43.41" rx="21.705" fill="url(#paint0_linear_27_4)"/>
<circle cx="21.7048" cy="21.8829" r="18.9919" fill="white" fill-opacity="0.16"/>
<path d="M21.5 26.9356L16.1994 24.2703L10.0347 23.1138C10.0122 23.1813 10 23.253 10 23.3269V26.9356C10 27.2257 10.1856 27.4831 10.4608 27.5748L21.2869 31.1835C21.3561 31.2066 21.428 31.2181 21.5 31.2181L22.3985 28.7475L21.5 26.9356Z" fill="white"/>
<path d="M21.5 26.8907V31.1732C21.572 31.1732 21.6439 31.1617 21.7131 31.1386L32.5392 27.5299C32.8144 27.4382 33 27.1807 33 26.8907V23.282C33 23.2081 32.9878 23.1364 32.9653 23.0689L27.7472 23.9098L21.5 26.8907Z" fill="#8EB0FF"/>
<path d="M32.9657 23.1138C32.8999 22.9164 32.7447 22.7559 32.5396 22.6876L21.7134 19.0788C21.5751 19.0328 21.4255 19.0328 21.2873 19.0788L10.4611 22.6876C10.256 22.7559 10.1008 22.9164 10.035 23.1138L21.5004 26.9355L32.9657 23.1138Z" fill="#E0E8FF"/>
<path d="M32.5392 22.6876L21.7131 19.0789C21.6439 19.0558 21.572 19.0443 21.5 19.0443V26.9356L32.9653 23.1138C32.8995 22.9165 32.7443 22.756 32.5392 22.6876Z" fill="white"/>
<path d="M21.5 19.6732L16.1994 17.0079L10.0347 15.8514C10.0122 15.9189 10 15.9906 10 16.0645V19.6732C10 19.9633 10.1856 20.2207 10.4608 20.3125L21.2869 23.9212C21.3561 23.9443 21.428 23.9558 21.5 23.9558L22.3985 21.4852L21.5 19.6732Z" fill="white"/>
<path d="M21.5 19.6283V23.9108C21.572 23.9108 21.6439 23.8993 21.7131 23.8762L32.5392 20.2675C32.8144 20.1758 33 19.9183 33 19.6282V16.0196C33 15.9457 32.9878 15.874 32.9653 15.8065L27.7472 16.6474L21.5 19.6283Z" fill="#8EB0FF"/>
<path d="M32.9657 15.8514C32.8999 15.6541 32.7447 15.4936 32.5396 15.4252L21.7134 11.8165C21.5751 11.7704 21.4255 11.7704 21.2873 11.8165L10.4611 15.4252C10.256 15.4936 10.1008 15.654 10.035 15.8514L21.5004 19.6732L32.9657 15.8514Z" fill="#E0E8FF"/>
<path d="M32.5392 15.4252L21.7131 11.8165C21.6439 11.7935 21.572 11.7819 21.5 11.7819V19.6732L32.9653 15.8514C32.8995 15.6541 32.7443 15.4935 32.5392 15.4252Z" fill="white"/>
<defs>
<linearGradient id="paint0_linear_27_4" x1="-2.69508" y1="-4.55061e-07" x2="46.9303" y2="55.45" gradientUnits="userSpaceOnUse">
<stop stop-color="#3F75FF"/>
<stop offset="1" stop-color="#000860"/>
</linearGradient>
</defs>
</svg>
