<svg width="17" height="23" viewBox="0 0 17 23" fill="none" xmlns="http://www.w3.org/2000/svg">
<path d="M6.53585 15.0839L6.52628 15.0609C6.38262 15.0205 6.24017 14.9755 6.09913 14.9262L6.08851 14.9219C4.62063 14.4043 3.34653 13.4267 2.44456 12.1258C1.54259 10.825 1.05789 9.26604 1.05832 7.66721C1.05784 5.70502 1.78756 3.81734 3.09716 2.39301C4.40676 0.968675 6.19651 0.116145 8.09778 0.0110181C9.99905 -0.094109 11.867 0.556172 13.317 1.82792C14.767 3.09967 15.6885 4.89604 15.8917 6.84703C15.9385 7.29818 15.5772 7.66721 15.1373 7.66721C14.6974 7.66721 14.3457 7.29709 14.2873 6.84812C14.1459 5.78841 13.7333 4.7866 13.0919 3.94565C12.4505 3.1047 11.6033 2.45494 10.6375 2.06314C9.67166 1.67135 8.62203 1.55166 7.59647 1.71637C6.5709 1.88108 5.60639 2.32426 4.80206 3.00034C3.99773 3.67643 3.3826 4.56105 3.01988 5.56328C2.65716 6.56551 2.55994 7.6492 2.73821 8.70297C2.91648 9.75674 3.36381 10.7426 4.03423 11.5592C4.70465 12.3758 5.57397 12.9937 6.55285 13.3494C6.75004 12.89 7.09445 12.5145 7.52835 12.2857C7.96225 12.057 8.45927 11.9888 8.93611 12.0928C9.41294 12.1968 9.84062 12.4665 10.1474 12.8567C10.4543 13.247 10.6216 13.7341 10.6214 14.2364C10.6214 14.8912 10.343 15.4782 9.90206 15.8789C9.51397 16.2322 9.01408 16.4273 8.49628 16.4276C8.07708 16.4291 7.66689 16.3022 7.31782 16.0629C6.96876 15.8237 6.69657 15.4829 6.53585 15.0839ZM4.24283 15.88C3.45968 15.4488 2.74252 14.9008 2.11451 14.2539C1.53237 14.3237 0.995385 14.6114 0.605563 15.0624C0.215742 15.5134 0.00024154 16.0962 0 16.7002V17.3332C0 18.3099 0.337896 19.256 0.954184 19.9996C2.61816 22.0079 5.15345 23 8.49628 23C11.8391 23 14.3755 22.0079 16.0426 19.9996C16.6604 19.2558 16.9999 18.3089 17 17.3299V16.7002C17 16.0471 16.7484 15.4208 16.3005 14.9588C15.8526 14.4968 15.2451 14.237 14.6113 14.2364H12.2153C12.2153 14.8255 12.0878 15.3818 11.8572 15.8789H14.6113C14.8223 15.8795 15.0245 15.9663 15.1735 16.1203C15.3225 16.2742 15.4062 16.4828 15.4062 16.7002V17.3299C15.4063 17.9173 15.2028 18.4855 14.8324 18.9319C13.4967 20.5394 11.4067 21.3563 8.49628 21.3563C5.58591 21.3563 3.49797 20.5394 2.16657 18.933C1.79635 18.4868 1.59287 17.9191 1.59279 17.3321V16.7002C1.59279 16.4824 1.67675 16.2735 1.8262 16.1195C1.97565 15.9655 2.17835 15.8789 2.38971 15.8789L4.24283 15.88ZM4.24602 7.66721C4.24621 6.91169 4.43603 6.16906 4.79703 5.51149C5.15803 4.85391 5.67794 4.30375 6.30624 3.91445C6.93455 3.52515 7.64988 3.30995 8.38273 3.28977C9.11559 3.26958 9.84105 3.4451 10.4886 3.79925C11.1362 4.15341 11.6839 4.67417 12.0785 5.31094C12.473 5.9477 12.7011 6.67882 12.7404 7.43326C12.7798 8.18769 12.6291 8.93979 12.303 9.61648C11.977 10.2932 11.4866 10.8714 10.8796 11.2951C10.2109 10.7198 9.36738 10.4048 8.49628 10.4048C9.20081 10.4048 9.87648 10.1164 10.3747 9.60299C10.8728 9.08959 11.1527 8.39327 11.1527 7.66721C11.1527 6.94115 10.8728 6.24483 10.3747 5.73143C9.87648 5.21803 9.20081 4.92961 8.49628 4.92961C7.79176 4.92961 7.11609 5.21803 6.61791 5.73143C6.11974 6.24483 5.83986 6.94115 5.83986 7.66721C5.83986 8.39327 6.11974 9.08959 6.61791 9.60299C7.11609 10.1164 7.79176 10.4048 8.49628 10.4048C7.58885 10.4048 6.75792 10.7399 6.11401 11.2951C5.53798 10.8945 5.06634 10.3541 4.74061 9.72144C4.41487 9.08882 4.24502 8.38338 4.24602 7.66721Z" fill="white"/>
</svg>
