<svg width="29" height="28" viewBox="0 0 29 28" fill="none" xmlns="http://www.w3.org/2000/svg">
<path fill-rule="evenodd" clip-rule="evenodd" d="M3.5829 25.1575H7.3675L9.99537 19.8691L0.800819 1.59273L0 0H1.77959H8.11493H8.78228L9.09074 0.602095L12.4186 7.1065L10.3424 11.3567L9.97163 7.16878L7.44759 2.19779H3.55918L11.2144 17.4163L19.5577 0.613959L19.8602 0H20.5394H26.7591H28.515L27.7438 1.5779L22.9152 11.4487L21.6813 8.99286L25.0032 2.19779H21.2186L18.6649 7.33488L27.8654 25.6172L28.6662 27.2099H26.8866H20.5483H19.881L19.5755 26.6078L16.2625 20.0856L18.3209 15.8472L18.7331 20.1123L21.2157 25.0121H25.107L17.4489 9.79071L9.02845 26.7413L8.72593 27.3553H8.04671H1.82705H0.0711807L0.842338 25.7774L5.67096 15.9066L6.90481 18.3624L3.5829 25.1575Z" fill="white"/>
</svg>
